<svg width="20" height="20" viewBox="0 0 20 20" fill="none" xmlns="http://www.w3.org/2000/svg">
<g id="customLine" clip-path="url(#clip0_1_801)">
<g id="Layer 2">
<g id="line">
<path id="background" d="M17.2727 0H2.72727C1.22104 0 0 1.22104 0 2.72727V17.2727C0 18.779 1.22104 20 2.72727 20H17.2727C18.779 20 20 18.779 20 17.2727V2.72727C20 1.22104 18.779 0 17.2727 0Z" fill="#39CD00"/>
<g id="icon">
<path id="shade" d="M16.25 9.31818C16.2411 9.44517 16.2248 9.57152 16.2011 9.69659C16.1221 10.1755 15.9602 10.6369 15.7227 11.0602C15.6091 11.2625 15.0625 12.0307 14.8955 12.233C13.9716 13.3455 12.4239 14.6295 9.8375 15.8784C9.78293 15.9048 9.72233 15.9161 9.66193 15.9113C9.60153 15.9064 9.54351 15.8855 9.49385 15.8508C9.44419 15.8161 9.40468 15.7688 9.3794 15.7137C9.35411 15.6586 9.34397 15.5978 9.35 15.5375L9.48068 14.3636C9.49057 14.2738 9.46441 14.1838 9.40795 14.1133C9.35148 14.0427 9.26933 13.9975 9.17954 13.9875C8.31913 13.9014 7.48098 13.6624 6.70455 13.2818C4.93182 12.4057 3.75 10.8409 3.75 9.05796C3.75 6.3125 6.54773 4.09091 10 4.09091C11.7341 4.09091 13.3023 4.65909 14.4318 5.56023C15.4898 6.40682 16.167 7.55568 16.2398 8.83069C16.2519 8.99289 16.2553 9.15562 16.25 9.31818Z" fill="white"/>
<g id="Group">
<path id="Vector" d="M8.27748 10.158C8.30771 10.1875 8.33165 10.2229 8.34786 10.262C8.36407 10.301 8.37221 10.343 8.3718 10.3852C8.37195 10.4273 8.3638 10.4689 8.34782 10.5078C8.33184 10.5467 8.30835 10.582 8.27868 10.6118C8.24901 10.6415 8.21376 10.6652 8.17494 10.6813C8.13613 10.6974 8.09451 10.7057 8.05248 10.7057H6.77407C6.68918 10.7054 6.60784 10.6715 6.54781 10.6115C6.48778 10.5515 6.45392 10.4701 6.45362 10.3852V7.97047C6.45334 7.92821 6.46154 7.88631 6.47774 7.84727C6.49394 7.80824 6.51781 7.77285 6.54794 7.7432C6.59267 7.69833 6.64973 7.66778 6.71187 7.65544C6.77401 7.6431 6.83841 7.64952 6.89689 7.67389C6.95537 7.69825 7.00528 7.73946 7.04028 7.79228C7.07527 7.84509 7.09376 7.90712 7.09339 7.97047V10.0648H8.05248C8.09432 10.0645 8.13579 10.0726 8.17443 10.0886C8.21308 10.1046 8.24813 10.1282 8.27748 10.158Z" fill="#00C200"/>
<path id="Vector_2" d="M9.31848 7.90116V10.4546C9.31818 10.5208 9.29174 10.5842 9.24492 10.631C9.1981 10.6778 9.13469 10.7043 9.06848 10.7046H8.92529C8.85899 10.7046 8.7954 10.6782 8.74852 10.6313C8.70163 10.5845 8.67529 10.5209 8.67529 10.4546V7.90116C8.67529 7.86833 8.68176 7.83582 8.69432 7.80549C8.70689 7.77516 8.7253 7.7476 8.74852 7.72439C8.77173 7.70117 8.79929 7.68276 8.82962 7.67019C8.85995 7.65763 8.89246 7.65116 8.92529 7.65116H9.06507C9.09814 7.65086 9.13095 7.6571 9.16161 7.66952C9.19226 7.68193 9.22017 7.70028 9.24371 7.72351C9.26726 7.74674 9.28599 7.77439 9.29882 7.80488C9.31165 7.83537 9.31833 7.86809 9.31848 7.90116Z" fill="#00C200"/>
<path id="Vector_3" d="M12.2867 7.97048V10.3716C12.2867 10.458 12.2532 10.541 12.1932 10.6031C12.1332 10.6653 12.0514 10.7016 11.9651 10.7046C11.8842 10.7033 11.8067 10.6716 11.748 10.6159C11.7367 10.6068 11.3071 10.0478 10.9423 9.5773C10.6696 9.22617 10.4333 8.91935 10.4333 8.91935V10.3841C10.4335 10.4462 10.4156 10.507 10.3818 10.5591C10.348 10.6112 10.2997 10.6522 10.2429 10.6773C10.1861 10.7024 10.1233 10.7104 10.062 10.7003C10.0008 10.6902 9.94377 10.6625 9.89803 10.6205C9.86504 10.5906 9.83868 10.5541 9.82068 10.5134C9.80267 10.4727 9.7934 10.4286 9.79348 10.3841V7.98412C9.79243 7.89975 9.82378 7.81819 9.88107 7.75624C9.93837 7.6943 10.0172 7.65669 10.1014 7.65117C10.1491 7.65039 10.1963 7.66017 10.2397 7.67982C10.2832 7.69947 10.3217 7.72849 10.3526 7.7648C10.3662 7.78071 11.0264 8.6398 11.398 9.12844C11.5458 9.31935 11.648 9.45344 11.648 9.45344V7.97617C11.6486 7.89166 11.6825 7.81079 11.7422 7.75103C11.802 7.69128 11.8828 7.65744 11.9673 7.65685C12.0511 7.65683 12.1314 7.6897 12.1912 7.74836C12.2509 7.80702 12.2852 7.88678 12.2867 7.97048Z" fill="#00C200"/>
<path id="Vector_4" d="M13.4093 9.4966V10.0648H14.3673C14.4109 10.0622 14.4545 10.0685 14.4956 10.0834C14.5367 10.0983 14.5743 10.1215 14.6061 10.1514C14.6379 10.1814 14.6632 10.2175 14.6805 10.2576C14.6978 10.2977 14.7068 10.341 14.7068 10.3847C14.7068 10.4284 14.6978 10.4716 14.6805 10.5117C14.6632 10.5518 14.6379 10.5879 14.6061 10.6179C14.5743 10.6479 14.5367 10.671 14.4956 10.6859C14.4545 10.7008 14.4109 10.7072 14.3673 10.7046H13.0854C13.0006 10.7042 12.9194 10.6704 12.8596 10.6103C12.7997 10.5502 12.7661 10.4689 12.7661 10.3841V7.97046C12.7664 7.88586 12.8002 7.80482 12.86 7.745C12.9198 7.68518 13.0008 7.65144 13.0854 7.65114H14.3638C14.4075 7.64854 14.4511 7.65489 14.4922 7.66979C14.5333 7.68469 14.5709 7.70783 14.6027 7.73779C14.6345 7.76775 14.6598 7.80389 14.6771 7.844C14.6944 7.88411 14.7034 7.92734 14.7034 7.97103C14.7034 8.01472 14.6944 8.05795 14.6771 8.09806C14.6598 8.13817 14.6345 8.17431 14.6027 8.20427C14.5709 8.23423 14.5333 8.25737 14.4922 8.27227C14.4511 8.28717 14.4075 8.29351 14.3638 8.29091H13.4093V8.8591H14.3673C14.4519 8.8591 14.5332 8.89274 14.593 8.95262C14.6529 9.01251 14.6866 9.09373 14.6866 9.17841C14.6866 9.2631 14.6529 9.34432 14.593 9.40421C14.5332 9.46409 14.4519 9.49773 14.3673 9.49773L13.4093 9.4966Z" fill="#00C200"/>
</g>
</g>
</g>
</g>
</g>
<defs>
<clipPath id="clip0_1_801">
<rect width="20" height="20" fill="white"/>
</clipPath>
</defs>
</svg>
